# xmcd
#
# Track frame offsets:
#	150
#	17888
#	32040
#	48433
#	65338
#	80277
#	97742
#	127816
#	149275
#	171284
#	191275
#	216872
#	242115
#	255267
#	273266
#
# Disc length: 3931 seconds
#
# Revision: 2
# Processed by: cddbd v1.5.1PL0 Copyright (c) Steve Scherf et al.
# Submitted via: audiograbber 1.83.01
#
DISCID=c10f590f
DTITLE=EL RESTAURANTE CD1 - LATINA CAFE vol 4
DYEAR=1900
DGENRE=Latin
TTITLE0=Gerd - Clarao De Luna
TTITLE1=Aleem - A Tribute To Brazil
TTITLE2=DJ Cam - Birds Also Ring For Anamaria
TTITLE3=Louie Vega - Jungle Fever
TTITLE4=Antibalas - Che Che Colo(Makossa Mix)
TTITLE5=Los Hombres Calientes - El Barrio
TTITLE6=Jazzanova - Tres Bien
TTITLE7=Robin Jones and Joao Bosco De Oliveira - Royal  Rumba(Fila Brazilia Mix)
TTITLE8=Mo Horizons - Quando Te Veo
TTITLE9=Trio Mocoto - Beleza!Beleza!!Beleza!!!
TTITLE10=Yoschinori Sunahara - Love Beat(Nicola Conte Fez Remix)
TTITLE11=Marcos Valle - On Line
TTITLE12=Zuco 103 - Get Ursell 2gether
TTITLE13=Eli Coulary and Banda Do Mo Mato - Meu Samba(Nicola Conte`s Bossa  Ahead
TTITLE13=Remix )
TTITLE14=Banda Favela - Samba 2150(Alex Phountzi Remix)
EXTD=
EXTT0=
EXTT1=
EXTT2=
EXTT3=
EXTT4=
EXTT5=
EXTT6=
EXTT7=
EXTT8=
EXTT9=
EXTT10=
EXTT11=
EXTT12=
EXTT13=
EXTT14=
PLAYORDER=
